<svg width="702" height="878" viewBox="0 0 702 878" fill="none" xmlns="http://www.w3.org/2000/svg" xmlns:xlink="http://www.w3.org/1999/xlink">
<path fill-rule="evenodd" clip-rule="evenodd" d="M789.188 87.7089L701.5 175.418L613.812 87.7089L701.5 0L789.188 87.7089Z" fill="#E45865"/>
<path fill-rule="evenodd" clip-rule="evenodd" d="M789.188 87.7089L701.5 175.418L613.812 87.7089L701.5 0L789.188 87.7089Z" fill="url(#pattern0)" fill-opacity="0.2" style="mix-blend-mode:overlay"/>
<path fill-rule="evenodd" clip-rule="evenodd" d="M701.5 263.127C701.5 311.567 662.241 350.836 613.812 350.836H526.125V175.418H613.812C662.241 175.418 701.5 214.686 701.5 263.127Z" fill="#E45865"/>
<path fill-rule="evenodd" clip-rule="evenodd" d="M701.5 263.127C701.5 311.567 662.241 350.836 613.812 350.836H526.125V175.418H613.812C662.241 175.418 701.5 214.686 701.5 263.127Z" fill="url(#pattern1)" fill-opacity="0.2" style="mix-blend-mode:overlay"/>
<path fill-rule="evenodd" clip-rule="evenodd" d="M789.188 526.253C837.616 526.253 876.875 565.522 876.875 613.962V701.671H789.188C740.759 701.671 701.5 662.403 701.5 613.962C701.5 565.522 740.759 526.253 789.188 526.253Z" fill="#E45865"/>
<path fill-rule="evenodd" clip-rule="evenodd" d="M789.188 526.253C837.616 526.253 876.875 565.522 876.875 613.962V701.671H789.188C740.759 701.671 701.5 662.403 701.5 613.962C701.5 565.522 740.759 526.253 789.188 526.253Z" fill="url(#pattern2)" fill-opacity="0.2" style="mix-blend-mode:overlay"/>
<path fill-rule="evenodd" clip-rule="evenodd" d="M656.779 263.127C656.779 287.347 637.15 306.981 612.936 306.981H569.092V263.127C569.092 238.907 588.721 219.272 612.936 219.272C637.15 219.272 656.779 238.907 656.779 263.127Z" fill="#98DEDE"/>
<path fill-rule="evenodd" clip-rule="evenodd" d="M656.779 263.127C656.779 287.347 637.15 306.981 612.936 306.981H569.092V263.127C569.092 238.907 588.721 219.272 612.936 219.272C637.15 219.272 656.779 238.907 656.779 263.127Z" fill="url(#pattern3)" fill-opacity="0.2" style="mix-blend-mode:overlay"/>
<path fill-rule="evenodd" clip-rule="evenodd" d="M876.875 350.836C973.732 350.836 1052.25 429.173 1052.25 525.806V526.254H701.5V525.806C701.5 429.173 780.018 350.836 876.875 350.836Z" fill="url(#paint0_linear_67_556)"/>
<path fill-rule="evenodd" clip-rule="evenodd" d="M876.875 350.836C973.732 350.836 1052.25 429.173 1052.25 525.806V526.254H701.5V525.806C701.5 429.173 780.018 350.836 876.875 350.836Z" fill="url(#pattern4)" fill-opacity="0.2" style="mix-blend-mode:overlay"/>
<path d="M701.5 701.671C701.5 798.552 622.982 877.089 526.125 877.089L526.125 526.254C622.982 526.254 701.5 604.791 701.5 701.671Z" fill="#1C528A"/>
<path fill-rule="evenodd" clip-rule="evenodd" d="M877.314 350.397C780.457 350.397 701.939 272.253 701.939 175.856L1052.69 175.856C1052.69 272.253 974.171 350.397 877.314 350.397Z" fill="#98DEDE"/>
<path fill-rule="evenodd" clip-rule="evenodd" d="M877.314 350.397C780.457 350.397 701.939 272.253 701.939 175.856L1052.69 175.856C1052.69 272.253 974.171 350.397 877.314 350.397Z" fill="url(#pattern5)" fill-opacity="0.2" style="mix-blend-mode:overlay"/>
<path fill-rule="evenodd" clip-rule="evenodd" d="M526.125 175.418L526.125 0L701.5 0L526.125 175.418Z" fill="#98DEDE"/>
<path fill-rule="evenodd" clip-rule="evenodd" d="M526.125 175.418L526.125 0L701.5 0L526.125 175.418Z" fill="url(#pattern6)" fill-opacity="0.2" style="mix-blend-mode:overlay"/>
<path d="M0 0H175.375V175.418H0V0Z" fill="#1C528A"/>
<path fill-rule="evenodd" clip-rule="evenodd" d="M350.75 526.253H526.125V701.671H350.75V526.253Z" fill="#98DEDE"/>
<path fill-rule="evenodd" clip-rule="evenodd" d="M350.75 526.253H526.125V701.671H350.75V526.253Z" fill="url(#pattern7)" fill-opacity="0.2" style="mix-blend-mode:overlay"/>
<path fill-rule="evenodd" clip-rule="evenodd" d="M87.6875 263.127L175.375 350.836L87.6875 438.545L0 350.836L87.6875 263.127Z" fill="#E45865"/>
<path fill-rule="evenodd" clip-rule="evenodd" d="M87.6875 263.127L175.375 350.836L87.6875 438.545L0 350.836L87.6875 263.127Z" fill="url(#pattern8)" fill-opacity="0.2" style="mix-blend-mode:overlay"/>
<path fill-rule="evenodd" clip-rule="evenodd" d="M439.315 526.253L527.002 613.962L439.315 701.671L351.627 613.962L439.315 526.253Z" fill="#E45865"/>
<path fill-rule="evenodd" clip-rule="evenodd" d="M439.315 526.253L527.002 613.962L439.315 701.671L351.627 613.962L439.315 526.253Z" fill="url(#pattern9)" fill-opacity="0.2" style="mix-blend-mode:overlay"/>
<path d="M87.6875 438.545L175.375 526.253L87.6875 613.962L0 526.253L87.6875 438.545Z" fill="#FFD4C4"/>
<path d="M87.6875 613.962L175.375 701.671L87.6875 789.38L0 701.671L87.6875 613.962Z" fill="#1C528A"/>
<path fill-rule="evenodd" clip-rule="evenodd" d="M350.75 263.127C350.75 311.567 311.491 350.836 263.062 350.836H175.375L175.375 175.418H263.062C311.491 175.418 350.75 214.686 350.75 263.127Z" fill="url(#paint1_linear_67_556)"/>
<path fill-rule="evenodd" clip-rule="evenodd" d="M350.75 263.127C350.75 311.567 311.491 350.836 263.062 350.836H175.375L175.375 175.418H263.062C311.491 175.418 350.75 214.686 350.75 263.127Z" fill="url(#pattern10)" fill-opacity="0.2" style="mix-blend-mode:overlay"/>
<path fill-rule="evenodd" clip-rule="evenodd" d="M263.062 350.836C311.491 350.836 350.75 390.104 350.75 438.545C350.75 486.985 311.491 526.254 263.062 526.254H175.375L175.375 438.545C175.375 390.104 214.634 350.836 263.062 350.836Z" fill="#E45865"/>
<path fill-rule="evenodd" clip-rule="evenodd" d="M263.062 350.836C311.491 350.836 350.75 390.104 350.75 438.545C350.75 486.985 311.491 526.254 263.062 526.254H175.375L175.375 438.545C175.375 390.104 214.634 350.836 263.062 350.836Z" fill="url(#pattern11)" fill-opacity="0.2" style="mix-blend-mode:overlay"/>
<path d="M438.438 350.836C486.866 350.836 526.125 390.104 526.125 438.545V526.254H438.438C390.009 526.254 350.75 486.985 350.75 438.545C350.75 390.104 390.009 350.836 438.438 350.836Z" fill="#1C528A"/>
<path fill-rule="evenodd" clip-rule="evenodd" d="M350.75 175.418C350.75 78.5372 429.268 0 526.125 0V350.836C429.268 350.836 350.75 272.298 350.75 175.418Z" fill="url(#paint2_linear_67_556)"/>
<path fill-rule="evenodd" clip-rule="evenodd" d="M350.75 175.418C350.75 78.5372 429.268 0 526.125 0V350.836C429.268 350.836 350.75 272.298 350.75 175.418Z" fill="url(#pattern12)" fill-opacity="0.2" style="mix-blend-mode:overlay"/>
<path d="M175.375 0H350.75V175.418L175.375 0Z" fill="#FFD4C4"/>
<path fill-rule="evenodd" clip-rule="evenodd" d="M350.75 175.418H175.375L175.375 0L350.75 175.418Z" fill="#E45865"/>
<path fill-rule="evenodd" clip-rule="evenodd" d="M350.75 175.418H175.375L175.375 0L350.75 175.418Z" fill="url(#pattern13)" fill-opacity="0.2" style="mix-blend-mode:overlay"/>
<path fill-rule="evenodd" clip-rule="evenodd" d="M0 175.418H175.375V350.836L0 175.418Z" fill="#98DEDE"/>
<path fill-rule="evenodd" clip-rule="evenodd" d="M0 175.418H175.375V350.836L0 175.418Z" fill="url(#pattern14)" fill-opacity="0.2" style="mix-blend-mode:overlay"/>
<path fill-rule="evenodd" clip-rule="evenodd" d="M175.375 877.089H0L0 701.671L175.375 877.089Z" fill="#98DEDE"/>
<path fill-rule="evenodd" clip-rule="evenodd" d="M175.375 877.089H0L0 701.671L175.375 877.089Z" fill="url(#pattern15)" fill-opacity="0.2" style="mix-blend-mode:overlay"/>
<path fill-rule="evenodd" clip-rule="evenodd" d="M175.375 701.671V526.253H350.75L175.375 701.671Z" fill="url(#paint3_linear_67_556)"/>
<path fill-rule="evenodd" clip-rule="evenodd" d="M175.375 701.671V526.253H350.75L175.375 701.671Z" fill="url(#pattern16)" fill-opacity="0.2" style="mix-blend-mode:overlay"/>
<path d="M701.5 701.671H876.875V877.089L701.5 701.671Z" fill="#FFD4C4"/>
<path fill-rule="evenodd" clip-rule="evenodd" d="M876.875 877.089H701.5V701.671L876.875 877.089Z" fill="url(#paint4_linear_67_556)"/>
<path fill-rule="evenodd" clip-rule="evenodd" d="M876.875 877.089H701.5V701.671L876.875 877.089Z" fill="url(#pattern17)" fill-opacity="0.2" style="mix-blend-mode:overlay"/>
<path fill-rule="evenodd" clip-rule="evenodd" d="M350.75 877.089C253.893 877.089 175.375 798.552 175.375 701.671L526.125 701.671C526.125 798.552 447.607 877.089 350.75 877.089Z" fill="#E45865"/>
<path fill-rule="evenodd" clip-rule="evenodd" d="M350.75 877.089C253.893 877.089 175.375 798.552 175.375 701.671L526.125 701.671C526.125 798.552 447.607 877.089 350.75 877.089Z" fill="url(#pattern18)" fill-opacity="0.2" style="mix-blend-mode:overlay"/>
<path d="M613.812 350.836C662.241 350.836 701.5 390.104 701.5 438.545C701.5 486.985 662.241 526.254 613.812 526.254H526.125V438.545C526.125 390.104 565.384 350.836 613.812 350.836Z" fill="#FFD4C4"/>
<path fill-rule="evenodd" clip-rule="evenodd" d="M306.906 263.127C306.906 287.347 287.277 306.981 263.062 306.981H219.219V263.127C219.219 238.907 238.848 219.272 263.062 219.272C287.277 219.272 306.906 238.907 306.906 263.127Z" fill="#E45865"/>
<path fill-rule="evenodd" clip-rule="evenodd" d="M306.906 263.127C306.906 287.347 287.277 306.981 263.062 306.981H219.219V263.127C219.219 238.907 238.848 219.272 263.062 219.272C287.277 219.272 306.906 238.907 306.906 263.127Z" fill="url(#pattern19)" fill-opacity="0.2" style="mix-blend-mode:overlay"/>
<path fill-rule="evenodd" clip-rule="evenodd" d="M87.6875 0L175.375 87.7089L87.6875 175.418L0 87.7089L87.6875 0Z" fill="url(#paint5_linear_67_556)"/>
<path fill-rule="evenodd" clip-rule="evenodd" d="M87.6875 0L175.375 87.7089L87.6875 175.418L0 87.7089L87.6875 0Z" fill="url(#pattern20)" fill-opacity="0.2" style="mix-blend-mode:overlay"/>
<path fill-rule="evenodd" clip-rule="evenodd" d="M87.6875 43.8544L131.531 87.7088L87.6875 131.563L43.8438 87.7088L87.6875 43.8544Z" fill="#E45865"/>
<path fill-rule="evenodd" clip-rule="evenodd" d="M87.6875 43.8544L131.531 87.7088L87.6875 131.563L43.8438 87.7088L87.6875 43.8544Z" fill="url(#pattern21)" fill-opacity="0.2" style="mix-blend-mode:overlay"/>
<path fill-rule="evenodd" clip-rule="evenodd" d="M87.6875 482.399L131.531 526.254L87.6875 570.108L43.8438 526.254L87.6875 482.399Z" fill="#98DEDE"/>
<path fill-rule="evenodd" clip-rule="evenodd" d="M87.6875 482.399L131.531 526.254L87.6875 570.108L43.8438 526.254L87.6875 482.399Z" fill="url(#pattern22)" fill-opacity="0.2" style="mix-blend-mode:overlay"/>
<path fill-rule="evenodd" clip-rule="evenodd" d="M263.062 482.399C287.277 482.399 306.906 462.765 306.906 438.545C306.906 414.324 287.277 394.69 263.062 394.69C238.848 394.69 219.219 414.324 219.219 438.545C219.219 462.765 238.848 482.399 263.062 482.399Z" fill="#98DEDE"/>
<path fill-rule="evenodd" clip-rule="evenodd" d="M263.062 482.399C287.277 482.399 306.906 462.765 306.906 438.545C306.906 414.324 287.277 394.69 263.062 394.69C238.848 394.69 219.219 414.324 219.219 438.545C219.219 462.765 238.848 482.399 263.062 482.399Z" fill="url(#pattern23)" fill-opacity="0.2" style="mix-blend-mode:overlay"/>
<path fill-rule="evenodd" clip-rule="evenodd" d="M87.6875 745.526C111.902 745.526 131.531 725.892 131.531 701.671C131.531 677.451 111.902 657.817 87.6875 657.817C63.4733 657.817 43.8438 677.451 43.8438 701.671C43.8438 725.892 63.4733 745.526 87.6875 745.526Z" fill="#98DEDE"/>
<path fill-rule="evenodd" clip-rule="evenodd" d="M87.6875 745.526C111.902 745.526 131.531 725.892 131.531 701.671C131.531 677.451 111.902 657.817 87.6875 657.817C63.4733 657.817 43.8438 677.451 43.8438 701.671C43.8438 725.892 63.4733 745.526 87.6875 745.526Z" fill="url(#pattern24)" fill-opacity="0.2" style="mix-blend-mode:overlay"/>
<path fill-rule="evenodd" clip-rule="evenodd" d="M263.062 131.563C287.277 131.563 306.906 111.929 306.906 87.7088C306.906 63.4887 287.277 43.8544 263.062 43.8544C238.848 43.8544 219.219 63.4887 219.219 87.7088C219.219 111.929 238.848 131.563 263.062 131.563Z" fill="#98DEDE"/>
<path fill-rule="evenodd" clip-rule="evenodd" d="M263.062 131.563C287.277 131.563 306.906 111.929 306.906 87.7088C306.906 63.4887 287.277 43.8544 263.062 43.8544C238.848 43.8544 219.219 63.4887 219.219 87.7088C219.219 111.929 238.848 131.563 263.062 131.563Z" fill="url(#pattern25)" fill-opacity="0.2" style="mix-blend-mode:overlay"/>
<path fill-rule="evenodd" clip-rule="evenodd" d="M612.936 394.69L656.779 438.545L612.936 482.399L569.092 438.545L612.936 394.69Z" fill="url(#paint6_linear_67_556)"/>
<path fill-rule="evenodd" clip-rule="evenodd" d="M612.936 394.69L656.779 438.545L612.936 482.399L569.092 438.545L612.936 394.69Z" fill="url(#pattern26)" fill-opacity="0.2" style="mix-blend-mode:overlay"/>
<defs>
<pattern id="pattern0" patternContentUnits="objectBoundingBox" width="1.47113" height="1.47077">
<use xlink:href="#image0_67_556" transform="scale(0.00570207 0.00570067)"/>
</pattern>
<pattern id="pattern1" patternContentUnits="objectBoundingBox" width="1.47113" height="1.47077">
<use xlink:href="#image0_67_556" transform="scale(0.00570207 0.00570067)"/>
</pattern>
<pattern id="pattern2" patternContentUnits="objectBoundingBox" width="1.47113" height="1.47077">
<use xlink:href="#image0_67_556" transform="scale(0.00570207 0.00570067)"/>
</pattern>
<pattern id="pattern3" patternContentUnits="objectBoundingBox" width="2.94227" height="2.94155">
<use xlink:href="#image0_67_556" transform="scale(0.0114041 0.0114013)"/>
</pattern>
<pattern id="pattern4" patternContentUnits="objectBoundingBox" width="0.735567" height="1.47077">
<use xlink:href="#image0_67_556" transform="scale(0.00285103 0.00570067)"/>
</pattern>
<pattern id="pattern5" patternContentUnits="objectBoundingBox" width="1.47816" height="0.735567">
<use xlink:href="#image0_67_556" transform="scale(0.00572932 0.00285103)"/>
</pattern>
<pattern id="pattern6" patternContentUnits="objectBoundingBox" width="1.47113" height="1.47077">
<use xlink:href="#image0_67_556" transform="scale(0.00570207 0.00570067)"/>
</pattern>
<pattern id="pattern7" patternContentUnits="objectBoundingBox" width="1.47113" height="1.47077">
<use xlink:href="#image0_67_556" transform="scale(0.00570207 0.00570067)"/>
</pattern>
<pattern id="pattern8" patternContentUnits="objectBoundingBox" width="1.47113" height="1.47077">
<use xlink:href="#image0_67_556" transform="scale(0.00570207 0.00570067)"/>
</pattern>
<pattern id="pattern9" patternContentUnits="objectBoundingBox" width="1.47113" height="1.47077">
<use xlink:href="#image0_67_556" transform="scale(0.00570207 0.00570067)"/>
</pattern>
<pattern id="pattern10" patternContentUnits="objectBoundingBox" width="1.47113" height="1.47077">
<use xlink:href="#image0_67_556" transform="scale(0.00570207 0.00570067)"/>
</pattern>
<pattern id="pattern11" patternContentUnits="objectBoundingBox" width="1.47113" height="1.47077">
<use xlink:href="#image0_67_556" transform="scale(0.00570207 0.00570067)"/>
</pattern>
<pattern id="pattern12" patternContentUnits="objectBoundingBox" width="1.47113" height="0.735387">
<use xlink:href="#image0_67_556" transform="scale(0.00570207 0.00285034)"/>
</pattern>
<pattern id="pattern13" patternContentUnits="objectBoundingBox" width="1.47113" height="1.47077">
<use xlink:href="#image0_67_556" transform="scale(0.00570207 0.00570067)"/>
</pattern>
<pattern id="pattern14" patternContentUnits="objectBoundingBox" width="1.47113" height="1.47077">
<use xlink:href="#image0_67_556" transform="scale(0.00570207 0.00570067)"/>
</pattern>
<pattern id="pattern15" patternContentUnits="objectBoundingBox" width="1.47113" height="1.47077">
<use xlink:href="#image0_67_556" transform="scale(0.00570207 0.00570067)"/>
</pattern>
<pattern id="pattern16" patternContentUnits="objectBoundingBox" width="1.47113" height="1.47077">
<use xlink:href="#image0_67_556" transform="scale(0.00570207 0.00570067)"/>
</pattern>
<pattern id="pattern17" patternContentUnits="objectBoundingBox" width="1.47113" height="1.47077">
<use xlink:href="#image0_67_556" transform="scale(0.00570207 0.00570067)"/>
</pattern>
<pattern id="pattern18" patternContentUnits="objectBoundingBox" width="0.735567" height="1.47077">
<use xlink:href="#image0_67_556" transform="scale(0.00285103 0.00570067)"/>
</pattern>
<pattern id="pattern19" patternContentUnits="objectBoundingBox" width="2.94227" height="2.94155">
<use xlink:href="#image0_67_556" transform="scale(0.0114041 0.0114013)"/>
</pattern>
<pattern id="pattern20" patternContentUnits="objectBoundingBox" width="1.47113" height="1.47077">
<use xlink:href="#image0_67_556" transform="scale(0.00570207 0.00570067)"/>
</pattern>
<pattern id="pattern21" patternContentUnits="objectBoundingBox" width="2.94227" height="2.94155">
<use xlink:href="#image0_67_556" transform="scale(0.0114041 0.0114013)"/>
</pattern>
<pattern id="pattern22" patternContentUnits="objectBoundingBox" width="2.94227" height="2.94155">
<use xlink:href="#image0_67_556" transform="scale(0.0114041 0.0114013)"/>
</pattern>
<pattern id="pattern23" patternContentUnits="objectBoundingBox" width="2.94227" height="2.94155">
<use xlink:href="#image0_67_556" transform="scale(0.0114041 0.0114013)"/>
</pattern>
<pattern id="pattern24" patternContentUnits="objectBoundingBox" width="2.94227" height="2.94155">
<use xlink:href="#image0_67_556" transform="scale(0.0114041 0.0114013)"/>
</pattern>
<pattern id="pattern25" patternContentUnits="objectBoundingBox" width="2.94227" height="2.94155">
<use xlink:href="#image0_67_556" transform="scale(0.0114041 0.0114013)"/>
</pattern>
<pattern id="pattern26" patternContentUnits="objectBoundingBox" width="2.94227" height="2.94155">
<use xlink:href="#image0_67_556" transform="scale(0.0114041 0.0114013)"/>
</pattern>
<linearGradient id="paint0_linear_67_556" x1="527.449" y1="437.883" x2="666.744" y2="716.405" gradientUnits="userSpaceOnUse">
<stop stop-color="#FEC55F"/>
<stop offset="1" stop-color="#FCD06D"/>
</linearGradient>
<linearGradient id="paint1_linear_67_556" x1="88.3494" y1="262.465" x2="262.443" y2="436.516" gradientUnits="userSpaceOnUse">
<stop stop-color="#FEC55F"/>
<stop offset="1" stop-color="#FCD06D"/>
</linearGradient>
<linearGradient id="paint2_linear_67_556" x1="263.724" y1="174.094" x2="542.233" y2="313.314" gradientUnits="userSpaceOnUse">
<stop stop-color="#FEC55F"/>
<stop offset="1" stop-color="#FCD06D"/>
</linearGradient>
<linearGradient id="paint3_linear_67_556" x1="88.3494" y1="613.3" x2="262.443" y2="787.351" gradientUnits="userSpaceOnUse">
<stop stop-color="#FEC55F"/>
<stop offset="1" stop-color="#FCD06D"/>
</linearGradient>
<linearGradient id="paint4_linear_67_556" x1="963.901" y1="790.042" x2="789.807" y2="615.991" gradientUnits="userSpaceOnUse">
<stop stop-color="#FEC55F"/>
<stop offset="1" stop-color="#FCD06D"/>
</linearGradient>
<linearGradient id="paint5_linear_67_556" x1="-87.0256" y1="87.0468" x2="87.0681" y2="261.098" gradientUnits="userSpaceOnUse">
<stop stop-color="#FEC55F"/>
<stop offset="1" stop-color="#FCD06D"/>
</linearGradient>
<linearGradient id="paint6_linear_67_556" x1="525.579" y1="438.214" x2="612.626" y2="525.239" gradientUnits="userSpaceOnUse">
<stop stop-color="#FEC55F"/>
<stop offset="1" stop-color="#FCD06D"/>
</linearGradient>
</defs>
</svg>
